<svg version="1.0" xmlns="http://www.w3.org/2000/svg"
 width="1840.000000pt" height="1452.000000pt" viewBox="0 0 1840.000000 1452.000000"
 preserveAspectRatio="xMidYMid meet">

<g transform="translate(0.000000,1452.000000) scale(0.100000,-0.100000)"
fill="#DEE4E2" stroke="none">
<path d="M9062 13612 c-15 -16 -59 -62 -99 -104 -79 -84 -136 -113 -242 -124
-114 -12 -360 26 -544 85 -135 43 -238 56 -329 41 -81 -14 -347 -104 -429
-145 -28 -15 -100 -46 -160 -70 -89 -35 -153 -74 -376 -223 -216 -146 -280
-184 -328 -197 -46 -12 -118 -15 -331 -15 -328 0 -366 -5 -414 -59 -47 -53
-94 -80 -252 -146 -73 -31 -156 -71 -184 -90 -28 -18 -110 -98 -181 -177 -261
-288 -794 -790 -1015 -957 -41 -31 -100 -58 -229 -105 -279 -101 -324 -128
-490 -296 -99 -101 -123 -120 -175 -139 -95 -35 -105 -41 -189 -126 -93 -93
-124 -145 -160 -274 -52 -187 -94 -257 -252 -421 -113 -116 -168 -195 -204
-289 -36 -97 -70 -262 -76 -377 -5 -96 -3 -121 15 -180 40 -132 129 -240 327
-397 117 -93 125 -100 105 -93 -94 34 -294 86 -331 86 -25 0 -68 9 -94 21 -74
33 -162 24 -240 -23 -33 -20 -105 -56 -160 -79 -134 -56 -198 -100 -268 -184
-77 -91 -311 -441 -351 -525 -28 -58 -31 -75 -31 -155 0 -49 4 -131 9 -181 8
-81 6 -99 -14 -165 -12 -41 -72 -172 -133 -291 -101 -197 -111 -222 -115 -280
-3 -51 1 -79 23 -139 102 -281 96 -259 92 -339 -3 -63 -11 -91 -49 -175 -63
-137 -74 -176 -103 -360 -30 -187 -54 -266 -101 -337 -53 -78 -107 -216 -101
-256 8 -47 55 -123 174 -284 124 -169 123 -159 36 -312 -92 -161 -153 -286
-153 -312 l0 -24 384 0 383 0 7 38 c3 20 6 134 6 252 0 286 28 1048 41 1130 5
36 35 163 64 283 61 244 80 371 71 467 -4 36 -30 155 -58 265 -65 257 -66 304
-15 406 20 41 81 129 136 196 115 143 155 201 204 299 47 94 65 166 77 320 14
166 25 232 56 324 37 113 23 105 186 104 123 -1 169 -6 328 -38 187 -38 364
-55 435 -42 50 10 85 46 85 89 0 78 -84 203 -328 483 -131 152 -157 202 -157
309 0 72 4 88 37 158 52 108 140 257 206 347 75 101 164 193 372 381 96 87
222 201 280 254 218 198 381 293 640 370 291 87 358 146 622 551 138 213 210
307 312 410 103 103 196 169 341 242 233 117 1191 535 1391 608 169 61 652
204 809 240 83 18 242 58 355 88 214 57 500 104 760 126 69 5 147 13 174 16
l48 6 -7 -63 c-4 -35 -20 -145 -37 -244 -38 -235 -45 -396 -23 -535 9 -58 19
-121 22 -140 l5 -35 -229 0 -228 -1 -150 -38 c-82 -20 -193 -44 -245 -52 -120
-18 -257 -55 -535 -143 -200 -63 -610 -172 -760 -201 -33 -6 -121 -29 -195
-52 -239 -71 -418 -182 -649 -403 -118 -114 -150 -138 -241 -186 -66 -35 -152
-70 -230 -93 -76 -23 -145 -51 -177 -71 -28 -19 -64 -37 -80 -41 -15 -4 -55
-26 -89 -50 -136 -96 -450 -391 -484 -454 -10 -19 -54 -73 -96 -120 -111 -122
-154 -179 -176 -229 -19 -45 -100 -130 -395 -411 -92 -88 -149 -151 -164 -180
-12 -25 -41 -71 -66 -102 -86 -113 -117 -207 -148 -453 -9 -71 -23 -157 -31
-190 -24 -95 -87 -213 -161 -303 -139 -170 -175 -219 -222 -312 -56 -108 -105
-245 -155 -428 -83 -304 -192 -589 -316 -824 -103 -195 -202 -462 -221 -596
-8 -51 -9 -173 -5 -362 6 -267 6 -290 -14 -364 -11 -44 -20 -107 -20 -140 0
-34 -7 -143 -15 -241 -17 -198 -22 -453 -10 -558 l7 -67 154 0 154 0 0 291 c0
179 6 352 15 452 8 89 21 326 29 527 14 341 17 373 45 495 26 112 43 159 131
345 167 353 247 554 297 745 91 351 199 566 451 898 59 78 116 161 125 185 27
68 65 276 77 422 6 74 17 158 25 185 21 76 80 159 206 292 63 66 146 154 184
194 39 41 102 100 142 132 43 34 81 73 93 96 11 22 62 91 113 153 50 62 122
152 159 199 37 48 90 106 118 130 28 24 106 94 173 154 234 211 280 242 424
294 172 61 348 137 397 170 24 17 108 92 187 167 260 247 360 301 709 389 80
20 350 94 600 165 1019 288 1044 293 1358 271 260 -18 255 -17 277 -57 41 -77
199 -203 340 -270 38 -19 75 -34 81 -34 34 0 30 -323 -6 -487 l-23 -103 -36 0
c-20 0 -160 13 -311 30 -381 40 -588 58 -775 66 -151 6 -166 5 -260 -20 -55
-14 -129 -37 -165 -51 -152 -61 -242 -77 -435 -80 -100 -1 -200 -8 -226 -14
-33 -9 -76 -38 -155 -102 -102 -84 -249 -182 -389 -259 -76 -42 -123 -75 -320
-230 -88 -69 -187 -146 -220 -170 -33 -24 -135 -116 -226 -205 -127 -122 -190
-174 -264 -220 -95 -59 -329 -266 -399 -353 -17 -20 -110 -119 -207 -218 -189
-194 -196 -203 -279 -399 -69 -163 -176 -366 -234 -446 -30 -41 -104 -141
-163 -224 -59 -82 -133 -185 -164 -227 -43 -58 -70 -111 -108 -210 -28 -73
-64 -160 -80 -193 -39 -81 -77 -200 -161 -510 -39 -143 -83 -289 -99 -325 -16
-36 -52 -135 -79 -220 -28 -85 -60 -176 -72 -203 -13 -28 -27 -94 -35 -165 -8
-64 -19 -157 -25 -207 -6 -49 -15 -102 -20 -117 -5 -15 -16 -94 -25 -175 -9
-81 -23 -164 -31 -183 -8 -19 -18 -66 -24 -105 -5 -38 -26 -146 -45 -240 -35
-169 -54 -348 -41 -399 l6 -26 150 0 150 0 10 26 c6 14 10 53 10 87 0 34 7 83
15 109 9 32 12 70 8 115 -4 51 0 90 15 153 12 47 31 164 43 260 11 96 30 209
41 250 32 121 36 148 43 300 8 166 7 162 73 335 123 322 177 499 212 694 11
58 30 133 44 166 13 33 27 78 32 100 4 22 52 139 107 260 94 205 110 234 250
435 83 118 186 255 230 304 52 59 90 112 109 155 65 144 98 218 121 273 26 57
54 90 207 233 61 57 112 119 178 215 107 158 174 236 251 293 31 22 110 89
176 147 66 58 176 153 245 210 69 57 170 146 224 198 55 51 119 107 142 123
68 46 264 153 319 173 43 16 138 71 303 175 23 15 84 66 135 113 l92 85 155 6
c230 10 387 40 504 99 105 53 192 69 391 75 99 3 245 0 325 -6 156 -12 628
-60 647 -66 7 -2 -7 -60 -44 -172 -30 -92 -77 -246 -104 -342 -27 -96 -52
-178 -56 -182 -11 -9 -474 -94 -653 -120 -80 -11 -208 -24 -285 -28 -115 -7
-156 -15 -233 -40 -51 -17 -107 -31 -125 -31 -20 0 -66 -17 -112 -41 -43 -23
-148 -73 -234 -111 -85 -38 -178 -84 -206 -102 -27 -19 -115 -66 -195 -106
-193 -97 -215 -112 -360 -259 -111 -113 -138 -134 -239 -191 -63 -35 -139 -86
-169 -113 -63 -57 -111 -88 -291 -188 -191 -106 -214 -132 -308 -349 -86 -198
-121 -257 -189 -317 -72 -63 -92 -99 -129 -227 -51 -177 -108 -256 -266 -372
-97 -71 -158 -134 -187 -191 -43 -84 -138 -327 -192 -493 -38 -116 -90 -244
-153 -376 -129 -269 -146 -329 -157 -564 -6 -109 -16 -207 -25 -240 -45 -159
-63 -286 -70 -490 -7 -213 3 -352 30 -416 l14 -34 181 0 c158 0 181 2 187 16
9 24 -8 46 -52 69 -57 30 -63 58 -64 286 -1 186 1 205 34 370 20 96 42 203 51
239 8 36 18 147 23 246 10 208 11 214 126 404 89 148 115 209 126 291 5 38 22
109 38 157 51 152 148 373 178 404 15 17 62 55 103 85 102 76 204 177 246 244
18 31 52 112 74 180 45 138 85 207 169 289 34 34 88 108 139 190 104 169 182
264 267 326 37 27 105 77 152 112 47 34 164 115 261 179 128 84 194 134 237
182 123 133 173 179 243 220 101 60 256 128 472 206 102 36 262 95 355 129
262 98 482 146 730 162 60 4 123 11 140 16 33 10 239 47 242 44 1 -1 -8 -60
-21 -132 -34 -179 -74 -462 -94 -660 l-17 -167 -225 -1 c-191 -2 -240 -6 -322
-24 -129 -29 -138 -33 -249 -108 -124 -83 -179 -101 -365 -119 -151 -14 -196
-24 -209 -45 -4 -6 -25 -22 -47 -36 -22 -14 -68 -52 -102 -83 -34 -32 -88 -74
-119 -95 -81 -51 -133 -101 -267 -256 -167 -193 -252 -277 -352 -345 -201
-139 -221 -162 -412 -465 -187 -297 -220 -358 -295 -538 -27 -64 -76 -173
-109 -242 -109 -227 -226 -543 -248 -670 -10 -53 -26 -104 -44 -136 -20 -37
-32 -75 -39 -135 -12 -94 -63 -370 -81 -439 -13 -48 -9 -300 5 -332 6 -16 23
-18 140 -18 l133 0 5 33 c3 17 13 93 22 167 9 74 29 214 45 310 17 96 30 192
30 212 0 20 13 72 28 115 16 43 37 116 46 163 37 178 136 429 335 848 139 296
222 445 330 597 112 157 166 214 241 254 31 17 112 80 179 142 155 141 179
165 273 277 78 92 207 207 315 280 32 22 81 60 109 85 69 63 90 69 198 62 145
-11 197 10 504 198 32 19 45 20 273 15 132 -3 242 -7 244 -9 2 -3 0 -74 -5
-159 -5 -85 -9 -291 -10 -457 l0 -301 -132 -4 -133 -4 -250 -86 c-269 -92
-383 -137 -503 -197 -259 -130 -719 -502 -898 -725 -128 -160 -254 -360 -310
-494 -16 -37 -48 -98 -72 -137 -23 -38 -47 -88 -53 -110 -6 -22 -21 -62 -35
-90 -40 -85 -81 -315 -103 -588 -12 -140 -15 -356 -5 -381 5 -13 26 -16 128
-16 l122 0 32 258 c18 141 35 295 38 342 6 76 14 105 87 280 44 107 86 202 93
210 7 8 23 47 36 85 49 144 265 449 466 656 225 233 390 351 723 518 252 127
292 138 523 150 89 5 168 11 176 14 8 3 27 8 43 11 l27 6 0 -484 0 -484 -47
-15 c-27 -9 -88 -18 -138 -22 -49 -3 -117 -15 -150 -26 -89 -30 -329 -150
-419 -210 -250 -168 -486 -485 -554 -744 -30 -113 -61 -311 -68 -437 l-7 -108
171 0 172 0 0 64 c0 36 7 116 15 179 41 313 147 564 276 652 24 17 84 62 134
100 109 85 224 154 325 194 78 31 207 61 260 61 l30 0 0 -423 0 -423 -68 0
c-89 0 -162 -34 -228 -107 -63 -70 -86 -125 -92 -219 l-5 -78 704 0 704 0 42
103 c241 581 874 1062 1719 1306 407 118 778 167 1208 159 295 -5 304 -8 471
-123 160 -111 243 -210 286 -342 20 -58 26 -143 10 -143 -4 0 -32 47 -60 105
-61 123 -124 206 -222 288 -81 68 -81 68 -100 -31 -25 -135 5 -308 73 -414 44
-70 91 -114 220 -205 68 -49 146 -115 187 -160 39 -42 73 -75 75 -72 3 2 9 66
15 141 14 167 1 331 -35 455 -28 97 -51 145 -107 225 -58 85 -105 116 -239
164 -82 29 -108 48 -91 65 8 8 60 4 189 -16 287 -42 519 -99 709 -173 l100
-39 6 -134 c12 -263 75 -443 217 -620 129 -161 273 -249 547 -334 323 -101
373 -118 464 -161 51 -24 95 -44 97 -44 11 0 1 151 -16 264 -63 406 -167 691
-311 853 -117 132 -286 262 -424 327 -78 37 -196 60 -277 53 -63 -5 -168 -41
-156 -53 3 -2 60 -33 127 -67 281 -145 420 -275 637 -597 98 -145 136 -212
152 -274 11 -38 11 -38 -10 -20 -11 11 -66 77 -122 149 -130 168 -340 377
-486 486 -204 152 -400 279 -573 369 -108 57 -108 57 -90 78 29 35 172 111
260 138 226 69 510 94 783 68 569 -53 906 -190 1205 -489 115 -114 253 -328
269 -417 10 -57 -14 -40 -86 61 -202 281 -563 551 -871 652 -49 16 -93 27 -96
23 -3 -3 -7 -61 -9 -129 -4 -138 13 -256 53 -362 31 -82 219 -367 293 -446
195 -205 488 -362 888 -478 189 -54 325 -111 386 -159 42 -34 72 -40 64 -12
-42 143 -112 419 -136 534 -17 81 -44 187 -61 235 -44 124 -137 304 -216 414
-117 164 -357 385 -490 451 -35 17 -67 36 -72 42 -7 8 21 27 93 64 157 79 235
158 431 433 87 123 168 235 179 248 l21 24 -30 -8 c-115 -30 -194 -32 -333 -9
-197 33 -474 -13 -667 -109 -206 -102 -328 -228 -391 -402 l-23 -64 37 -8 c20
-4 96 -8 167 -7 111 1 143 5 220 28 107 32 226 87 314 144 56 37 129 67 138
58 7 -7 -97 -103 -162 -148 -145 -103 -322 -173 -479 -190 -95 -11 -109 -10
-231 16 -797 166 -826 169 -1137 147 -266 -20 -444 -60 -643 -147 -55 -24
-109 -44 -120 -44 -54 0 -525 139 -525 154 0 33 77 236 130 341 70 140 277
441 365 531 105 107 170 106 260 -4 112 -136 308 -238 534 -277 141 -25 271
-16 459 31 179 44 421 155 609 278 110 72 175 99 266 110 31 4 57 11 57 15 0
24 -184 160 -385 285 -145 90 -440 234 -550 269 -258 81 -515 50 -683 -82 -52
-41 -226 -230 -219 -237 2 -3 40 7 83 20 238 75 576 76 834 1 47 -13 114 -29
150 -35 97 -16 211 -52 207 -64 -2 -7 -33 -10 -83 -9 -342 9 -641 5 -784 -10
-181 -20 -366 -49 -534 -83 -65 -13 -120 -24 -123 -24 -2 0 28 47 66 104 132
196 383 609 476 781 89 167 293 386 461 498 105 69 300 167 374 187 45 12 95
6 85 -10 -3 -5 -58 -35 -122 -65 -303 -144 -510 -308 -597 -475 -20 -37 -36
-70 -36 -73 0 -9 122 -47 204 -62 191 -37 333 -9 565 110 161 83 226 129 342
244 104 104 150 165 263 349 34 54 94 130 145 183 l88 92 -391 -6 c-409 -5
-484 -12 -641 -58 -324 -95 -573 -334 -629 -603 -12 -56 -22 -75 -58 -114 -74
-79 -156 -193 -404 -562 -305 -452 -354 -518 -456 -616 -78 -74 -124 -111
-328 -259 -124 -90 -286 -265 -374 -404 -40 -64 -86 -140 -102 -169 l-29 -53
-65 8 c-104 13 -749 9 -890 -6 -143 -15 -534 -81 -660 -112 -47 -12 -160 -47
-252 -79 l-167 -58 -6 26 c-3 15 -6 115 -7 222 -2 283 29 392 136 485 68 61
128 91 237 120 142 38 241 47 367 35 118 -12 212 -29 212 -40 0 -4 -71 -10
-157 -13 -231 -9 -449 -62 -580 -140 -69 -41 -69 -61 -1 -133 153 -162 449
-186 854 -69 99 28 101 29 239 123 119 81 139 91 259 132 l78 26 -148 81
c-385 209 -598 262 -871 218 -127 -21 -213 -55 -308 -124 -44 -32 -90 -63
-102 -70 -25 -13 -25 -13 0 54 18 50 115 205 182 290 199 254 454 421 755 496
83 21 119 24 290 24 216 0 249 -6 448 -82 125 -49 94 -55 -90 -18 -116 24
-156 27 -313 27 -157 -1 -192 -4 -275 -25 -100 -26 -256 -83 -265 -96 -10 -17
59 -134 113 -193 122 -131 313 -225 527 -258 123 -20 357 -15 525 9 199 29
278 51 421 114 163 72 246 97 347 104 l84 6 -49 30 c-26 16 -138 101 -248 187
-271 213 -336 258 -465 324 -386 198 -780 196 -1061 -4 -102 -72 -176 -112
-248 -134 -30 -9 -58 -16 -63 -16 -30 0 29 71 111 134 31 24 160 114 286 201
309 212 425 301 586 449 135 123 185 183 327 391 68 101 264 305 387 404 237
191 515 319 773 356 116 17 142 16 142 -8 0 -8 -42 -25 -114 -46 -328 -94
-619 -265 -870 -510 -150 -147 -316 -364 -316 -413 0 -23 130 -88 230 -115
102 -28 405 -25 522 4 194 49 440 159 652 292 337 212 398 272 629 621 96 146
198 294 226 330 82 103 197 215 269 262 l66 43 -109 6 c-452 26 -972 19 -1214
-17 -306 -44 -667 -172 -814 -287 -373 -293 -528 -518 -553 -805 -4 -42 -15
-93 -24 -112 -27 -52 -386 -400 -538 -520 -73 -57 -240 -183 -371 -280 -131
-96 -352 -258 -490 -360 -239 -176 -476 -347 -513 -370 -11 -6 3 31 38 103 80
167 98 249 92 417 -5 117 -10 147 -37 230 -55 163 -176 370 -288 491 -32 34
-101 98 -153 142 -52 43 -125 115 -163 158 -37 43 -70 79 -74 79 -3 0 -3 -26
1 -58 8 -73 -28 -276 -79 -447 -49 -162 -57 -302 -26 -453 50 -239 126 -418
223 -518 103 -107 257 -197 279 -163 26 41 34 103 34 274 -1 233 -9 278 -96
533 -41 118 -39 140 7 77 117 -163 194 -404 194 -606 0 -55 -21 -199 -40 -270
-12 -46 -63 -121 -169 -251 -102 -125 -250 -347 -296 -445 -72 -150 -161 -454
-250 -849 -24 -108 -46 -198 -48 -200 -1 -2 -33 50 -69 114 -195 343 -311 719
-358 1167 -17 162 -24 683 -11 824 23 244 115 615 212 846 151 363 350 663
629 945 240 242 520 393 894 480 178 41 479 70 541 52 27 -7 20 -10 -60 -26
-426 -82 -861 -251 -1095 -425 -98 -72 -241 -211 -266 -256 l-19 -36 35 -29
c89 -73 272 -159 425 -200 214 -56 539 -30 816 66 192 67 493 218 638 322 113
80 286 244 424 400 55 63 132 140 171 172 76 63 208 137 294 165 51 16 69 35
34 35 -23 0 -474 110 -632 155 -281 79 -610 119 -785 96 -199 -27 -532 -128
-704 -216 -29 -14 -55 -24 -57 -22 -7 7 231 233 370 352 247 212 461 367 607
442 41 20 104 61 140 90 205 161 411 261 637 308 96 20 296 37 339 29 51 -10
25 -30 -55 -44 -423 -73 -807 -258 -963 -466 -23 -30 -40 -56 -38 -58 36 -33
175 -109 236 -129 134 -44 241 -53 396 -32 240 31 457 98 613 187 181 103 269
183 422 381 97 125 156 176 270 229 46 22 82 41 80 43 -2 1 -66 14 -143 29
-222 43 -310 64 -475 119 l-155 52 -170 -1 c-183 -1 -260 -13 -473 -74 -283
-81 -494 -243 -603 -464 -27 -55 -49 -105 -49 -112 0 -19 -43 -49 -290 -199
-280 -170 -419 -262 -551 -365 -56 -44 -104 -78 -106 -77 -6 6 171 435 213
517 62 119 129 205 275 350 118 117 128 130 157 205 105 268 109 532 11 873
-26 89 -163 467 -213 586 -19 45 -25 41 -51 -29 -37 -101 -99 -192 -245 -360
-179 -205 -229 -286 -294 -473 -59 -171 -88 -325 -93 -502 -5 -142 -3 -164 21
-263 27 -111 48 -161 99 -236 39 -57 63 -81 83 -81 24 0 117 94 172 173 129
188 192 370 222 642 6 55 16 118 21 140 l11 39 14 -33 c25 -60 11 -438 -21
-562 -26 -100 -95 -235 -177 -344 -96 -127 -157 -234 -302 -526 -104 -213
-211 -397 -223 -385 -2 2 3 26 12 53 25 74 29 131 15 260 -16 153 -39 242 -88
339 -59 120 -90 205 -132 369 -21 83 -40 143 -43 135 -33 -98 -43 -114 -139
-217 -323 -346 -428 -518 -507 -838 -68 -274 -48 -535 52 -686 42 -63 105
-139 116 -139 21 0 137 122 186 194 102 153 154 292 191 506 13 80 27 161 30
180 l7 35 13 -30 c18 -41 18 -202 -1 -306 -26 -150 -91 -318 -171 -441 -68
-106 -164 -200 -379 -373 -209 -168 -311 -264 -387 -366 -55 -75 -76 -89 -95
-63 -33 45 -10 249 112 994 168 1029 180 1149 166 1730 -8 311 -14 409 -30
508 -31 179 -58 302 -98 432 -20 63 -39 131 -44 150 -9 37 -2 100 11 100 15 0
221 -504 254 -620 45 -163 71 -421 63 -647 -4 -133 -3 -161 7 -146 54 79 131
223 151 280 40 120 67 271 72 413 12 288 -50 507 -214 754 -86 131 -310 356
-478 480 -153 112 -394 266 -418 266 -10 0 -31 -13 -45 -28z"/>
<path d="M10560 3241 l-635 -679 -3 569 -2 569 -440 0 -440 0 0 -260 0 -260
175 0 175 0 0 -1125 0 -1125 265 0 265 0 2 652 3 653 618 -653 618 -652 362 0
361 0 -45 48 c-25 26 -308 322 -629 657 -321 336 -616 644 -657 685 l-73 76
526 554 c289 305 539 569 555 586 l30 31 -187 174 c-102 96 -192 175 -198 176
-6 1 -297 -303 -646 -676z"/>
<path d="M12966 3750 c-476 -60 -890 -348 -1111 -772 -64 -123 -95 -204 -123
-318 -95 -389 -20 -797 208 -1134 211 -314 549 -537 927 -613 123 -24 404 -24
527 0 293 59 541 191 751 402 206 205 334 437 397 716 31 138 33 435 5 569
-61 286 -190 523 -396 731 -210 211 -453 343 -741 400 -110 22 -343 32 -444
19z m320 -531 c629 -111 950 -812 624 -1361 -84 -141 -259 -294 -415 -363
-121 -53 -207 -70 -365 -70 -118 0 -160 5 -226 22 -173 47 -307 127 -432 257
-176 184 -262 413 -249 666 21 418 316 760 727 845 80 16 256 19 336 4z"/>
<path d="M950 3440 l0 -260 175 0 175 0 0 -1125 0 -1125 265 0 265 0 0 506 0
506 33 -6 c108 -20 214 -27 385 -24 l194 3 228 -490 228 -490 291 -3 c160 -1
291 2 291 6 0 5 -119 263 -265 573 -146 310 -265 567 -265 570 0 3 31 29 69
57 255 191 376 472 341 796 -25 223 -120 403 -287 541 -77 64 -231 145 -331
174 -166 50 -193 51 -1018 51 l-774 0 0 -260z m1553 -275 c149 -26 239 -79
294 -173 35 -59 44 -189 19 -275 -32 -109 -147 -202 -305 -246 -180 -50 -456
-50 -643 0 l-38 10 0 349 0 350 294 0 c216 0 316 -4 379 -15z"/>
<path d="M3560 3440 l0 -260 163 -2 162 -3 6 -720 c6 -787 4 -767 68 -931 81
-209 249 -392 462 -504 324 -169 754 -172 1074 -7 271 140 438 350 517 648 22
84 22 89 25 1062 l4 977 -265 0 -265 0 -3 -952 -3 -953 -28 -82 c-61 -180
-198 -297 -399 -339 -233 -50 -498 66 -593 260 -62 127 -59 71 -62 1114 l-4
952 -429 0 -430 0 0 -260z"/>
<path d="M6380 3441 l0 -261 170 0 170 0 0 -1050 0 -1049 29 -15 c84 -44 341
-129 476 -158 91 -19 380 -16 488 5 133 27 258 71 387 138 379 196 641 540
732 962 18 84 22 134 22 282 0 258 -34 406 -145 628 -72 145 -140 239 -264
363 -194 194 -413 316 -695 386 -81 21 -114 22 -727 25 l-643 4 0 -260z m1285
-290 c108 -28 249 -99 337 -170 110 -89 183 -184 248 -324 62 -134 74 -191 74
-362 0 -181 -12 -233 -89 -390 -122 -246 -338 -414 -607 -470 -72 -16 -224
-19 -315 -9 l-53 7 0 875 0 875 163 -6 c115 -4 185 -12 242 -26z"/>
<path d="M14710 3440 l0 -260 176 -2 176 -3 417 -1120 417 -1120 291 -3 291
-2 16 42 c9 24 241 646 515 1383 l498 1340 -290 3 c-160 1 -292 1 -294 -1 -3
-4 -119 -316 -533 -1432 -106 -286 -195 -523 -199 -527 -6 -7 -112 275 -565
1499 l-171 463 -372 0 -373 0 0 -260z"/>
</g>
</svg>
